<svg xmlns="http://www.w3.org/2000/svg" width="170.06" height="148.846" viewBox="0 0 170.06 148.846">
  <g id="Group_1729" data-name="Group 1729" transform="translate(719.024 -1612.352)">
    <g id="Group_1721" data-name="Group 1721" transform="translate(-707.316 1612.352)">
      <path id="Path_2218" data-name="Path 2218" d="M-528.743,1719.446l-8.515-5.14a60.584,60.584,0,0,0,8.7-31.319,60.759,60.759,0,0,0-60.69-60.69,60.759,60.759,0,0,0-60.69,60.69,60.586,60.586,0,0,0,8.7,31.319l-8.515,5.14a70.533,70.533,0,0,1-10.128-36.459,70.715,70.715,0,0,1,70.636-70.635,70.715,70.715,0,0,1,70.636,70.635A70.531,70.531,0,0,1-528.743,1719.446Z" transform="translate(659.887 -1612.352)" fill="#3e3e3e"/>
    </g>
    <g id="Group_1723" data-name="Group 1723" transform="translate(-719.024 1731.622)">
      <path id="Path_2219" data-name="Path 2219" d="M-477.733,1835.566a2.4,2.4,0,0,0,1.549-.521,1.819,1.819,0,0,0,.647-1.507,1.822,1.822,0,0,0-.633-1.45,2.3,2.3,0,0,0-1.563-.551,2.3,2.3,0,0,0-1.563.551,1.823,1.823,0,0,0-.633,1.45,1.821,1.821,0,0,0,.647,1.507A2.4,2.4,0,0,0-477.733,1835.566Z" transform="translate(587.054 -1830.439)" fill="#fff"/>
      <path id="Path_2220" data-name="Path 2220" d="M-463.635,1835.566a2.4,2.4,0,0,0,1.549-.521,1.817,1.817,0,0,0,.648-1.507,1.842,1.842,0,0,0-.62-1.45,2.288,2.288,0,0,0-1.577-.551,2.3,2.3,0,0,0-1.563.551,1.824,1.824,0,0,0-.633,1.45,1.818,1.818,0,0,0,.648,1.507A2.392,2.392,0,0,0-463.635,1835.566Z" transform="translate(579.068 -1830.439)" fill="#fff"/>
      <path id="Path_2221" data-name="Path 2221" d="M-486.243,1846.351h-1.494a13.117,13.117,0,0,0-3.887.55,9.3,9.3,0,0,0-3.056,1.563,7.122,7.122,0,0,0-2,2.478,7.455,7.455,0,0,0-.719,3.325,8.077,8.077,0,0,0,.747,3.619,6.668,6.668,0,0,0,2.056,2.466,8.892,8.892,0,0,0,3.07,1.407,15.2,15.2,0,0,0,3.788.45h.508v2.253h-8.2a11.788,11.788,0,0,1-2.366-.224,4.023,4.023,0,0,1-1.831-.846,3.033,3.033,0,0,1-.916-1.45,7.548,7.548,0,0,1-.268-2.156v-1.746a3.943,3.943,0,0,0-3.943-3.943v6.168a12.525,12.525,0,0,0,.422,3.281,5.328,5.328,0,0,0,1.465,2.55,7.91,7.91,0,0,0,1.365,1.056,7.509,7.509,0,0,0,1.591.718,10.429,10.429,0,0,0,1.9.409,18.78,18.78,0,0,0,2.3.127h9.465a2.957,2.957,0,0,0,2.956-2.958v-16.141A2.957,2.957,0,0,0-486.243,1846.351Zm-.986,11.914h-1.662a6.1,6.1,0,0,1-1.789-.253,4.2,4.2,0,0,1-1.451-.76A3.566,3.566,0,0,1-493.1,1856a4.036,4.036,0,0,1-.352-1.732,3.488,3.488,0,0,1,.381-1.634,3.973,3.973,0,0,1,1.014-1.253,4.749,4.749,0,0,1,1.842-.916,5.846,5.846,0,0,1,1.474-.169h1.515Z" transform="translate(601.113 -1838.83)" fill="#fff"/>
      <path id="Path_2222" data-name="Path 2222" d="M-402.584,1841.8v10.618a3.778,3.778,0,0,1-.845,2.591,3.2,3.2,0,0,1-2.534.958,3.472,3.472,0,0,1-2.55-.93,4.054,4.054,0,0,1-1-2.871v-3.043a3.943,3.943,0,0,0-3.943-3.944v6.987a3.841,3.841,0,0,1-.338,1.717,2.986,2.986,0,0,1-.887,1.084,3.245,3.245,0,0,1-1.211.564,5.631,5.631,0,0,1-1.281.154h-2.873v-6.562a3.943,3.943,0,0,0-3.942-3.944v10.506H-433.5l.021-9.027a2.881,2.881,0,0,0-2.881-2.888h-1.562a13.107,13.107,0,0,0-3.887.55,9.3,9.3,0,0,0-3.056,1.564,7.115,7.115,0,0,0-2,2.478,7.454,7.454,0,0,0-.718,3.324,8.089,8.089,0,0,0,.746,3.619,6.671,6.671,0,0,0,2.056,2.465,8.868,8.868,0,0,0,3.071,1.407,15.209,15.209,0,0,0,3.788.451h.451a2.989,2.989,0,0,1-.353,1.183,1.846,1.846,0,0,1-.7.69,2.846,2.846,0,0,1-1.056.309c-.35.04-.758.059-1.2.066v0h-1.551a3.944,3.944,0,0,0-3.942,3.945h5.258v-.006c.094,0,.184.006.281.006a10.037,10.037,0,0,0,3.211-.451,5.7,5.7,0,0,0,2.169-1.268,5.181,5.181,0,0,0,1.268-1.958,9.448,9.448,0,0,0,.534-2.521h16.161a9.731,9.731,0,0,0,3.421-.708,7.782,7.782,0,0,0,2.4-1.714,5.087,5.087,0,0,0,1.113,1.309,5.5,5.5,0,0,0,1.366.831,6.57,6.57,0,0,0,1.52.437,10.17,10.17,0,0,0,1.606.127q3.689,0,5.492-1.958t1.8-6.041v-6.2A3.914,3.914,0,0,0-402.584,1841.8Zm-34.83,13.885h-1.662a6.111,6.111,0,0,1-1.789-.253,4.209,4.209,0,0,1-1.451-.761,3.557,3.557,0,0,1-.972-1.253,4.022,4.022,0,0,1-.352-1.732,3.5,3.5,0,0,1,.38-1.634,3.976,3.976,0,0,1,1.014-1.253,4.729,4.729,0,0,1,1.842-.916,5.826,5.826,0,0,1,1.473-.169h1.516Z" transform="translate(568.73 -1836.255)" fill="#fff"/>
      <g id="Group_1722" data-name="Group 1722" transform="translate(0 0)">
        <path id="Path_2223" data-name="Path 2223" d="M-716.837,1833.032a2.4,2.4,0,0,0,1.549-.52,1.825,1.825,0,0,0,.648-1.508,1.827,1.827,0,0,0-.634-1.451,2.307,2.307,0,0,0-1.563-.549,2.306,2.306,0,0,0-1.563.549,1.826,1.826,0,0,0-.634,1.451,1.826,1.826,0,0,0,.648,1.508A2.4,2.4,0,0,0-716.837,1833.032Z" transform="translate(722.498 -1829.004)" fill="#fff"/>
        <path id="Path_2224" data-name="Path 2224" d="M-702.738,1833.032a2.4,2.4,0,0,0,1.549-.52,1.825,1.825,0,0,0,.648-1.508,1.844,1.844,0,0,0-.62-1.451,2.293,2.293,0,0,0-1.577-.549,2.308,2.308,0,0,0-1.563.549,1.827,1.827,0,0,0-.633,1.451,1.824,1.824,0,0,0,.647,1.508A2.4,2.4,0,0,0-702.738,1833.032Z" transform="translate(714.511 -1829.004)" fill="#fff"/>
        <path id="Path_2225" data-name="Path 2225" d="M-669.688,1834.811a2.565,2.565,0,0,0,1.62.535,2.565,2.565,0,0,0,1.619-.535,1.874,1.874,0,0,0,.69-1.578,1.906,1.906,0,0,0-.661-1.507,2.42,2.42,0,0,0-1.648-.578,2.42,2.42,0,0,0-1.648.578,1.907,1.907,0,0,0-.662,1.507A1.875,1.875,0,0,0-669.688,1834.811Z" transform="translate(694.936 -1830.219)" fill="#fff"/>
        <path id="Path_2226" data-name="Path 2226" d="M-617.836,1835.566a2.394,2.394,0,0,0,1.549-.521,1.816,1.816,0,0,0,.648-1.507,1.842,1.842,0,0,0-.619-1.45,2.289,2.289,0,0,0-1.577-.551,2.3,2.3,0,0,0-1.563.551,1.825,1.825,0,0,0-.634,1.45,1.819,1.819,0,0,0,.648,1.507A2.394,2.394,0,0,0-617.836,1835.566Z" transform="translate(666.417 -1830.439)" fill="#fff"/>
        <path id="Path_2227" data-name="Path 2227" d="M-631.934,1835.566a2.4,2.4,0,0,0,1.549-.521,1.818,1.818,0,0,0,.648-1.507,1.824,1.824,0,0,0-.634-1.45,2.3,2.3,0,0,0-1.563-.551,2.3,2.3,0,0,0-1.563.551,1.824,1.824,0,0,0-.634,1.45,1.82,1.82,0,0,0,.647,1.507A2.4,2.4,0,0,0-631.934,1835.566Z" transform="translate(674.403 -1830.439)" fill="#fff"/>
        <path id="Path_2228" data-name="Path 2228" d="M-537.128,1830.239v19.927a2.915,2.915,0,0,0,2.916,2.916h1.028v-18.9A3.944,3.944,0,0,0-537.128,1830.239Z" transform="translate(619.455 -1829.704)" fill="#fff"/>
        <path id="Path_2229" data-name="Path 2229" d="M-678.667,1846.351h-1.691a13.164,13.164,0,0,0-3.859.535,8.523,8.523,0,0,0-2.985,1.564,7.163,7.163,0,0,0-1.93,2.491,7.72,7.72,0,0,0-.69,3.325,6.276,6.276,0,0,0,.366,2.2,6.976,6.976,0,0,0,.986,1.8H-694.3v-8.958a2.956,2.956,0,0,0-2.956-2.957h-1.692a13.165,13.165,0,0,0-3.859.535,8.522,8.522,0,0,0-2.985,1.564,7.15,7.15,0,0,0-1.929,2.491,7.71,7.71,0,0,0-.691,3.325,6.262,6.262,0,0,0,.367,2.2,6.946,6.946,0,0,0,.986,1.8h-5.828v-8.951a2.956,2.956,0,0,0-2.945-2.957l-1.561-.007a12.681,12.681,0,0,0-4.07.605,9.121,9.121,0,0,0-3.028,1.663,7.028,7.028,0,0,0-1.887,2.508,7.671,7.671,0,0,0-.647,3.167,7.985,7.985,0,0,0,.718,3.495,6.809,6.809,0,0,0,2,2.478,8.669,8.669,0,0,0,3.042,1.465,14.777,14.777,0,0,0,3.873.478h38.724a2.956,2.956,0,0,0,2.957-2.956v-9.945A2.957,2.957,0,0,0-678.667,1846.351Zm-38.161,11.914h-1.718a5.66,5.66,0,0,1-1.69-.253,4.364,4.364,0,0,1-1.451-.76,3.827,3.827,0,0,1-1.014-1.239,3.684,3.684,0,0,1-.38-1.719,3.482,3.482,0,0,1,.409-1.7,3.847,3.847,0,0,1,1.084-1.253,5.033,5.033,0,0,1,1.521-.775,5.632,5.632,0,0,1,1.718-.268h1.521Zm18.588,0h-4.084a5.063,5.063,0,0,1-1.563-1.689,4.585,4.585,0,0,1-.577-2.309,3.6,3.6,0,0,1,.394-1.706,3.952,3.952,0,0,1,1.029-1.253,4.353,4.353,0,0,1,1.464-.76,5.722,5.722,0,0,1,1.676-.254h1.662Zm18.587,0h-4.084a5.061,5.061,0,0,1-1.564-1.689,4.581,4.581,0,0,1-.577-2.309,3.594,3.594,0,0,1,.394-1.706,3.951,3.951,0,0,1,1.028-1.253,4.356,4.356,0,0,1,1.464-.76,5.727,5.727,0,0,1,1.676-.254h1.662Z" transform="translate(727.024 -1838.83)" fill="#fff"/>
        <path id="Path_2230" data-name="Path 2230" d="M-583.247,1830.239v18.9h-4.842l.021-9.026a2.882,2.882,0,0,0-2.881-2.888h-1.562a13.1,13.1,0,0,0-3.888.55,9.313,9.313,0,0,0-3.056,1.563,7.135,7.135,0,0,0-2,2.479,7.456,7.456,0,0,0-.718,3.324,8.086,8.086,0,0,0,.746,3.618,6.667,6.667,0,0,0,2.057,2.466,8.9,8.9,0,0,0,3.07,1.408,15.281,15.281,0,0,0,3.789.449h.451a2.991,2.991,0,0,1-.352,1.183,1.839,1.839,0,0,1-.7.691,2.851,2.851,0,0,1-1.057.309c-.349.04-.757.059-1.2.066v0h-1.549a3.944,3.944,0,0,0-3.943,3.944h5.258v-.005c.094,0,.184.005.281.005a10.024,10.024,0,0,0,3.211-.451,5.718,5.718,0,0,0,2.169-1.267,5.187,5.187,0,0,0,1.268-1.958,9.446,9.446,0,0,0,.535-2.521h5.886a2.956,2.956,0,0,0,2.956-2.956v-15.943A3.943,3.943,0,0,0-583.247,1830.239Zm-8.758,18.9h-1.662a6.129,6.129,0,0,1-1.789-.252,4.2,4.2,0,0,1-1.451-.762,3.546,3.546,0,0,1-.971-1.252,4.016,4.016,0,0,1-.352-1.732,3.5,3.5,0,0,1,.38-1.635,3.96,3.96,0,0,1,1.014-1.253,4.748,4.748,0,0,1,1.842-.916,5.837,5.837,0,0,1,1.472-.169H-592Z" transform="translate(656.3 -1829.704)" fill="#fff"/>
      </g>
    </g>
    <g id="Group_1724" data-name="Group 1724" transform="translate(-707.316 1612.352)">
      <path id="Path_2231" data-name="Path 2231" d="M-528.743,1719.446l-8.515-5.14a60.584,60.584,0,0,0,8.7-31.319,60.759,60.759,0,0,0-60.69-60.69,60.759,60.759,0,0,0-60.69,60.69,60.586,60.586,0,0,0,8.7,31.319l-8.515,5.14a70.533,70.533,0,0,1-10.128-36.459,70.715,70.715,0,0,1,70.636-70.635,70.715,70.715,0,0,1,70.636,70.635A70.531,70.531,0,0,1-528.743,1719.446Z" transform="translate(659.887 -1612.352)" fill="#fff"/>
    </g>
    <path id="Path_2244" data-name="Path 2244" d="M-563.771,1658.542a45.532,45.532,0,0,0-45.521,45.526,45.428,45.428,0,0,0,16.006,34.654h59.021a45.432,45.432,0,0,0,16-34.654A45.519,45.519,0,0,0-563.771,1658.542Z" transform="translate(-71.539 -22.011)" fill="none" stroke="#94b538" stroke-miterlimit="10" stroke-width="2"/>
    <g id="Group_1728" data-name="Group 1728" transform="translate(-659.194 1658.456)">
      <g id="Group_1727" data-name="Group 1727" transform="translate(0)">
        <path id="Path_2245" data-name="Path 2245" d="M-554.221,1740.774l6.687,0-6.237,4.674.009,11.726h-2.71l-1.975-13.322Zm24.265,2.24,3.213,14.157h2.71l-2.2-17.048a10.274,10.274,0,0,1-2.718.611Zm17.946-25.416-1.07.834a2.9,2.9,0,0,1-1.787.614h-4.323l-1.627,12.48a9.081,9.081,0,0,1-3.017,5.655,9.075,9.075,0,0,1-6,2.259l-2.72,6.153-.621,11.577h-2.709l-.847-11.771-2.858-5.963-15.07.009-8.244,6v11.727h-2.708l-2.352-17.744,1.811-1.751v-7.946a1.806,1.806,0,0,1-1.807-1.808v-1.45a8.311,8.311,0,0,1,2.718-6.149,8.313,8.313,0,0,1,5.594-2.164h20.059l5.549-4.445a8.492,8.492,0,0,1-1.447-4.75,8.549,8.549,0,0,1,8.539-8.54,8.543,8.543,0,0,1,8.149,5.981l.977.458a5.414,5.414,0,0,1,2.174,1.865l4.083,6.053A2.088,2.088,0,0,1-512.01,1717.6Zm-7.812-9.75a7.213,7.213,0,0,0-7.941-6.048,7.231,7.231,0,0,0-6.373,6.667,7.217,7.217,0,0,0,7.192,7.706,7.141,7.141,0,0,0,2.438-.423l-.235-.348a2.563,2.563,0,0,0-2.087-1.1h-.042a4.141,4.141,0,0,1-3.953-3.578,4.125,4.125,0,0,1,4.087-4.659,4.122,4.122,0,0,1,3.4,1.79Zm-7.8-.311a2.79,2.79,0,0,0-1.9,2.563l2.372-1.9Zm10.658,4.591-.819-1.2a.941.941,0,0,0-.778-.411h-1.8l.1.521a1.328,1.328,0,0,0,1.308,1.093Z" transform="translate(567.959 -1700.425)" fill="#94b538"/>
      </g>
      <path id="Path_2246" data-name="Path 2246" d="M-518.81,1804.611s-1.894-.247-5.159-.53l-2.05-2.05s.156-1.72-.469-2.344-13.54-.807-13.54-.807l-3.383.449-4.178.2-1.434,1.433,3.622.078-4.533.833-4.689,1.251-1.343.537c-3.328.212-6.739.519-10.174.949Z" transform="translate(567.092 -1747.341)" fill="#94b538"/>
    </g>
  </g>
</svg>
